<mxfile host="Electron" modified="2023-04-23T02:03:34.569Z" agent="Mozilla/5.0 (Windows NT 10.0; Win64; x64) AppleWebKit/537.36 (KHTML, like Gecko) draw.io/21.2.1 Chrome/112.0.5615.87 Electron/24.1.2 Safari/537.36" etag="SQ1PeKmQs8YvKtoWh2M8" version="21.2.1" type="device">
  <diagram id="C5RBs43oDa-KdzZeNtuy" name="Page-1">
    <mxGraphModel dx="1295" dy="1524" grid="1" gridSize="10" guides="1" tooltips="1" connect="1" arrows="1" fold="1" page="1" pageScale="1" pageWidth="827" pageHeight="1169" math="0" shadow="0">
      <root>
        <mxCell id="WIyWlLk6GJQsqaUBKTNV-0" />
        <mxCell id="WIyWlLk6GJQsqaUBKTNV-1" parent="WIyWlLk6GJQsqaUBKTNV-0" />
        <mxCell id="_9QvVU8hzhrvSvUGCxbc-7" value="" style="edgeStyle=orthogonalEdgeStyle;rounded=0;orthogonalLoop=1;jettySize=auto;html=1;" parent="WIyWlLk6GJQsqaUBKTNV-1" source="_9QvVU8hzhrvSvUGCxbc-1" target="_9QvVU8hzhrvSvUGCxbc-2" edge="1">
          <mxGeometry relative="1" as="geometry" />
        </mxCell>
        <mxCell id="_9QvVU8hzhrvSvUGCxbc-1" value="Demitir" style="rounded=1;whiteSpace=wrap;html=1;" parent="WIyWlLk6GJQsqaUBKTNV-1" vertex="1">
          <mxGeometry x="45" width="120" height="60" as="geometry" />
        </mxCell>
        <mxCell id="_9QvVU8hzhrvSvUGCxbc-5" value="Sim" style="edgeStyle=orthogonalEdgeStyle;rounded=0;orthogonalLoop=1;jettySize=auto;html=1;entryX=0;entryY=0.5;entryDx=0;entryDy=0;" parent="WIyWlLk6GJQsqaUBKTNV-1" source="_9QvVU8hzhrvSvUGCxbc-2" target="_9QvVU8hzhrvSvUGCxbc-3" edge="1">
          <mxGeometry relative="1" as="geometry" />
        </mxCell>
        <mxCell id="_9QvVU8hzhrvSvUGCxbc-6" value="Não" style="edgeStyle=orthogonalEdgeStyle;rounded=0;orthogonalLoop=1;jettySize=auto;html=1;" parent="WIyWlLk6GJQsqaUBKTNV-1" source="_9QvVU8hzhrvSvUGCxbc-2" target="_9QvVU8hzhrvSvUGCxbc-4" edge="1">
          <mxGeometry relative="1" as="geometry" />
        </mxCell>
        <mxCell id="_9QvVU8hzhrvSvUGCxbc-2" value="Nível do Funcionário é diferente de Junior ou Pleno?" style="rhombus;whiteSpace=wrap;html=1;" parent="WIyWlLk6GJQsqaUBKTNV-1" vertex="1">
          <mxGeometry y="140" width="210" height="210" as="geometry" />
        </mxCell>
        <mxCell id="H8M6yK8CZekjocky79J1-0" style="edgeStyle=orthogonalEdgeStyle;rounded=0;orthogonalLoop=1;jettySize=auto;html=1;entryX=0.5;entryY=0;entryDx=0;entryDy=0;" parent="WIyWlLk6GJQsqaUBKTNV-1" source="_9QvVU8hzhrvSvUGCxbc-3" target="_9QvVU8hzhrvSvUGCxbc-9" edge="1">
          <mxGeometry relative="1" as="geometry" />
        </mxCell>
        <mxCell id="_9QvVU8hzhrvSvUGCxbc-3" value="Lance exceção DemissaoInvalidaException(&quot;Funcionário não é Estagiário de TI ou Desenvolvedor.&quot;)" style="rounded=0;whiteSpace=wrap;html=1;" parent="WIyWlLk6GJQsqaUBKTNV-1" vertex="1">
          <mxGeometry x="279" y="226.25" width="541" height="37.5" as="geometry" />
        </mxCell>
        <mxCell id="H8M6yK8CZekjocky79J1-1" style="edgeStyle=orthogonalEdgeStyle;rounded=0;orthogonalLoop=1;jettySize=auto;html=1;entryX=0;entryY=0.5;entryDx=0;entryDy=0;" parent="WIyWlLk6GJQsqaUBKTNV-1" source="_9QvVU8hzhrvSvUGCxbc-4" target="_9QvVU8hzhrvSvUGCxbc-9" edge="1">
          <mxGeometry relative="1" as="geometry" />
        </mxCell>
        <mxCell id="_9QvVU8hzhrvSvUGCxbc-4" value="Atribui demissão às tarefas concluídas" style="rounded=0;whiteSpace=wrap;html=1;" parent="WIyWlLk6GJQsqaUBKTNV-1" vertex="1">
          <mxGeometry x="45" y="446" width="120" height="60" as="geometry" />
        </mxCell>
        <mxCell id="_9QvVU8hzhrvSvUGCxbc-9" value="Fim" style="rounded=1;whiteSpace=wrap;html=1;" parent="WIyWlLk6GJQsqaUBKTNV-1" vertex="1">
          <mxGeometry x="489.5" y="446" width="120" height="60" as="geometry" />
        </mxCell>
      </root>
    </mxGraphModel>
  </diagram>
</mxfile>
